<svg width="930" height="528" viewBox="0 0 930 528" fill="none" xmlns="http://www.w3.org/2000/svg">
<rect width="930" height="528" fill="#E5E5E5"/>
<g id="undraw_vehicle_sale_a645 1" clip-path="url(#clip0_0_1)">
<path id="Vector" opacity="0.1" d="M465 528C208.188 528 0 458.789 0 373.414C0 288.038 208.188 218.827 465 218.827C721.812 218.827 930 288.038 930 373.414C930 458.789 721.812 528 465 528Z" fill="#536DFE"/>
<g id="Group" opacity="0.8">
<path id="Vector_2" opacity="0.8" d="M592.068 31.4744C584.185 43.2539 578.137 77.5595 576.451 87.8969L562.36 87.5906C563.089 78.7095 579.482 42.5857 584.039 32.6739C586.575 32.2503 589.281 31.8366 592.068 31.4744Z" fill="#65617D"/>
<path id="Vector_3" opacity="0.8" d="M767.933 23.8102L768.099 33.1789L761.858 33.3045L761.692 23.9358L767.933 23.8102Z" fill="#DCE0ED"/>
<path id="Vector_4" opacity="0.1" d="M767.933 23.8102L767.987 26.8607C767.549 27.0038 767.093 27.0787 766.634 27.0831L761.749 27.137L761.692 23.9358L767.933 23.8102Z" fill="black"/>
<path id="Vector_5" opacity="0.8" d="M758.634 0.11995L764.527 0.00135551C765.934 -0.0266812 767.317 0.393363 768.499 1.20776C769.681 2.02215 770.609 3.19385 771.162 4.57292C772.968 9.0651 774.557 16.2342 770.844 23.4906C770.43 24.3013 769.82 24.9795 769.077 25.4552C768.334 25.9309 767.486 26.187 766.619 26.1969L759.097 26.2796L758.634 0.11995Z" fill="#DCE0ED"/>
<path id="Vector_6" opacity="0.8" d="M752.555 13.3268C752.427 6.103 755.148 0.190097 758.634 0.119953C762.119 0.0498102 765.048 5.84899 765.176 13.0728C765.304 20.2966 762.583 26.2095 759.097 26.2796C755.612 26.3498 752.683 20.5506 752.555 13.3268Z" fill="#F0F0F4"/>
<path id="Vector_7" opacity="0.8" d="M712.49 25.0369L712.636 33.2395L706.394 33.3651L706.249 25.1625L712.49 25.0369Z" fill="#DCE0ED"/>
<path id="Vector_8" opacity="0.1" d="M712.49 25.0368L712.536 27.644C712.098 27.7871 711.642 27.862 711.183 27.8663L706.298 27.9203L706.249 25.1625L712.49 25.0368Z" fill="black"/>
<path id="Vector_9" opacity="0.8" d="M703.191 1.34663L709.084 1.22804C710.491 1.20001 711.874 1.62006 713.056 2.43446C714.238 3.24885 715.166 4.42055 715.719 5.79962C717.525 10.2918 719.114 17.4609 715.401 24.7173C714.987 25.528 714.377 26.2062 713.634 26.6819C712.891 27.1576 712.043 27.4136 711.176 27.4236L703.654 27.5063L703.191 1.34663Z" fill="#DCE0ED"/>
<path id="Vector_10" opacity="0.8" d="M697.113 14.5535C696.985 7.32967 699.706 1.41678 703.192 1.34665C706.677 1.27652 709.606 7.0757 709.734 14.2995C709.862 21.5233 707.14 27.4362 703.655 27.5063C700.17 27.5764 697.241 21.7772 697.113 14.5535Z" fill="#F0F0F4"/>
<path id="Vector_11" opacity="0.8" d="M704.85 6.09601C704.85 6.09601 702.529 6.53974 703.798 9.78971C704.468 11.368 704.966 13.0232 705.282 14.7227C705.282 14.7227 707.633 15.9657 707.464 11.7011C707.296 7.43638 704.85 6.09601 704.85 6.09601Z" fill="#DCE0ED"/>
<path id="Vector_12" opacity="0.8" d="M434.807 198.506C434.386 174.753 450.531 155.166 470.869 154.757C491.207 154.348 508.035 173.271 508.456 197.024C508.877 220.777 492.731 240.364 472.394 240.773C452.056 241.183 435.228 222.259 434.807 198.506Z" fill="#636780"/>
<path id="Vector_13" opacity="0.1" d="M484.715 157.162C465.469 158.931 450.536 177.926 450.941 200.78C451.267 219.202 461.464 234.717 475.512 240.563C494.758 238.794 509.691 219.799 509.286 196.945C508.959 178.523 498.763 163.008 484.715 157.162Z" fill="black"/>
<path id="Vector_14" opacity="0.8" d="M728.293 98.5687C727.886 75.6321 740.939 56.7691 757.446 56.4368C773.954 56.1046 787.666 74.4291 788.072 97.3657C788.479 120.302 775.426 139.165 758.919 139.498C742.411 139.83 728.699 121.505 728.293 98.5687Z" fill="#636780"/>
<path id="Vector_15" opacity="0.1" d="M749.123 58.3445C736.817 63.6562 728.048 79.7612 728.382 98.6239C728.739 118.781 739.373 135.374 753.15 138.874C765.456 133.563 774.225 117.458 773.891 98.5951C773.534 78.4377 762.9 61.8447 749.123 58.3445Z" fill="black"/>
<path id="Vector_16" opacity="0.8" d="M645.748 91.3591L646.036 76.2729C646.036 76.2729 643.147 69.8257 640.362 69.2903C637.578 68.755 631.191 68.5139 631.191 68.5139C631.191 68.5139 626.582 90.2664 630.026 96.7023C633.47 103.138 645.748 91.3591 645.748 91.3591Z" fill="#65617D"/>
<path id="Vector_17" opacity="0.1" d="M645.748 91.3591L646.036 76.2729C646.036 76.2729 643.147 69.8257 640.362 69.2903C637.578 68.755 631.191 68.5139 631.191 68.5139C631.191 68.5139 626.582 90.2664 630.026 96.7023C633.47 103.138 645.748 91.3591 645.748 91.3591Z" fill="black"/>
<path id="Vector_18" opacity="0.8" d="M594.539 90.7633C594.539 90.7633 592.449 69.8947 603.225 69.3016C604.611 69.2253 605.998 69.1619 607.377 68.9915C614.836 68.0702 635.184 65.9847 632.831 70.9943C632.831 70.9943 628.298 89.2708 631.708 93.7854L594.539 90.7633Z" fill="#65617D"/>
<path id="Vector_19" opacity="0.8" d="M748.004 126.448L762.471 126.6C762.471 126.6 764.465 98.1734 765.258 95.9397C766.05 93.7061 766.278 83.0565 763.546 81.5591C760.814 80.0616 751.73 78.3594 751.73 78.3594L745.359 94.6769L745.099 109.319L748.004 126.448Z" fill="#65617D"/>
<path id="Vector_20" opacity="0.1" d="M748.004 126.448L762.471 126.6C762.471 126.6 764.465 98.1734 765.258 95.9397C766.05 93.7061 766.278 83.0565 763.546 81.5591C760.814 80.0616 751.73 78.3594 751.73 78.3594L745.359 94.6769L745.099 109.319L748.004 126.448Z" fill="black"/>
<path id="Vector_21" opacity="0.8" d="M712.216 80.0417L712.096 76.8828C712.087 76.6337 712.125 76.3852 712.209 76.1527C712.293 75.9201 712.421 75.7084 712.585 75.5306C712.749 75.3528 712.946 75.2128 713.163 75.1191C713.379 75.0254 713.612 74.9801 713.846 74.986C721.018 75.164 747.119 75.9702 751.73 78.3594C751.73 78.3594 747.438 118.032 753.119 127.343L751.808 159.083L687.847 155.269L712.216 80.0417Z" fill="#65617D"/>
<path id="Vector_22" opacity="0.1" d="M706.337 30.1683C708.107 29.9464 710.213 29.7 712.569 29.4574L712.636 33.2395L706.394 33.3651L706.337 30.1683Z" fill="black"/>
<path id="Vector_23" opacity="0.1" d="M768.091 32.7L768.099 33.1789L761.858 33.3045L761.807 30.4269C763.982 30.9028 766.093 31.6664 768.091 32.7V32.7Z" fill="black"/>
<path id="Vector_24" opacity="0.8" d="M801.074 126.378L791.644 126.714L771.484 89.365L768.119 83.1299L770.333 67.1185L772.319 70.9463L801.074 126.378Z" fill="#DCE0ED"/>
<path id="Vector_25" opacity="0.8" d="M714.951 81.6853L711.179 87.971L699.273 71.4801L693.824 63.9249L696.934 59.2813L699.433 62.3886L714.951 81.6853Z" fill="#DCE0ED"/>
<path id="Vector_26" opacity="0.1" d="M699.433 62.3887C699.455 62.7076 699.478 63.0353 699.504 63.3675L699.273 71.4801L693.824 63.9253L696.934 59.2809L699.433 62.3887Z" fill="black"/>
<path id="Vector_27" opacity="0.1" d="M772.319 70.9463L771.484 89.365L768.119 83.1299L770.333 67.1185L772.319 70.9463Z" fill="black"/>
<path id="Vector_28" opacity="0.8" d="M688.598 74.3813C688.598 74.3813 683.285 37.4062 700.14 31.5226C700.356 31.4486 700.578 31.3952 700.804 31.3631C704.696 30.7827 740.99 25.5821 759.97 30.5127C759.97 30.5127 772.906 32.3222 772.898 39.7147L768.812 130.132L759.519 130.319L761.512 70.5483C761.512 70.5483 765.49 44.4471 758.107 42.8215C750.724 41.1959 717.246 38.9127 705.519 42.697C705.519 42.697 696.883 40.801 698.671 63.3857L698.331 75.516L688.598 74.3813Z" fill="#DCE0ED"/>
<path id="Vector_29" opacity="0.8" d="M717.088 84.8226C717.148 83.8428 716.97 82.863 716.572 81.9776C716.174 81.0922 715.568 80.3311 714.813 79.7677C712.175 77.7139 704.085 73.3304 704.085 73.3304L701.488 73.6045L694.052 94.3788L695.348 138.153L709.719 156.381L717.088 84.8226Z" fill="#65617D"/>
<path id="Vector_30" opacity="0.1" d="M717.088 84.8226C717.148 83.8428 716.97 82.863 716.572 81.9776C716.174 81.0922 715.568 80.3311 714.813 79.7677C712.175 77.7139 704.085 73.3304 704.085 73.3304L701.488 73.6045L694.052 94.3788L695.348 138.153L709.719 156.381L717.088 84.8226Z" fill="black"/>
<path id="Vector_31" opacity="0.8" d="M661.867 131.841L661.348 86.9054C661.348 86.9054 659.791 69.4907 669.564 68.9983C669.564 68.9983 692.629 68.7132 702.707 71.9776C703.025 72.0797 703.318 72.2561 703.564 72.4938C703.81 72.7316 704.004 73.0248 704.131 73.3522C704.257 73.6795 704.314 74.0329 704.296 74.3865C704.279 74.7401 704.188 75.0852 704.03 75.3967C702.101 79.137 698.91 88.9982 697.732 114.153L698.21 141.089L661.867 131.841Z" fill="#65617D"/>
<path id="Vector_32" opacity="0.8" d="M711.024 159.57L669.047 159.373L669.005 159.374L648.375 159.279L650.246 129.857L661.697 130.07L698.259 137.983L709.719 156.381L711.024 159.57Z" fill="#65617D"/>
<path id="Vector_33" opacity="0.1" d="M711.024 159.57L669.047 159.373L669.005 159.374L648.375 159.279L650.246 129.857L661.697 130.07L698.259 137.983L709.719 156.381L711.024 159.57Z" fill="black"/>
<path id="Vector_34" opacity="0.8" d="M711.024 159.57L669.047 159.373L668.007 139.701L698.259 137.983L709.719 156.381L711.024 159.57Z" fill="#65617D"/>
<path id="Vector_35" opacity="0.1" d="M669.005 159.374L648.374 159.279L650.246 129.857C650.246 129.857 656.89 140.701 668.007 139.701L669.005 159.374Z" fill="white"/>
<path id="Vector_36" opacity="0.8" d="M817.428 180.161C816.745 188.602 811.104 187.385 811.104 187.385L810.054 187.304L799.642 186.507L799.826 173.418C803.35 173.132 806.893 173.287 810.382 173.88C814.296 174.662 817.732 176.411 817.428 180.161Z" fill="#DCE0ED"/>
<path id="Vector_37" opacity="0.1" d="M817.428 180.161C816.745 188.602 811.104 187.385 811.104 187.385L810.054 187.304C808.894 185.438 808.278 183.248 808.286 181.01C808.153 178.442 808.898 175.909 810.382 173.88C814.296 174.662 817.732 176.411 817.428 180.161Z" fill="black"/>
<path id="Vector_38" opacity="0.8" d="M672.356 97.4028C672.599 111.075 665.095 122.313 655.596 122.505C646.098 122.696 638.201 111.767 637.959 98.095C637.717 84.4229 645.22 73.1844 654.719 72.9933C664.217 72.8021 672.114 83.7306 672.356 97.4028ZM665.866 99.1597C665.69 89.2423 659.68 81.3207 652.441 81.4664C645.202 81.6121 639.476 89.7699 639.652 99.6873C639.828 109.605 645.839 117.526 653.077 117.381C660.316 117.235 666.042 109.077 665.866 99.1597V99.1597Z" fill="#636780"/>
<path id="Vector_39" opacity="0.8" d="M656.125 105.344L664.319 113.606L667.098 106.01L655.319 99.0026L656.125 105.344Z" fill="#636780"/>
<path id="Vector_40" opacity="0.8" d="M666.506 21.727L673.526 22.4947L676.183 25.7319L672.578 44.6994L664.747 75.299L659.625 96.3019L655.986 109.066L653.823 125.906L651.565 137.498L644.319 145.517L628.966 126.931L626.393 120.684L620.256 107.949L635.385 100.034L652.099 98.1229L659.595 76.4528L665.554 51.4015L666.506 21.727Z" fill="#536DFE"/>
<path id="Vector_41" opacity="0.8" d="M526.42 114.607L518.717 196.67L633.884 189.177L619.857 149.245L597.392 134.321L648.172 134.186L648.051 111.716L627.44 107.399L586.045 104.684L554.95 103.831L525.452 114.775" fill="#65617D"/>
<path id="Vector_42" opacity="0.1" d="M526.42 114.607L518.717 196.67L633.884 189.177L619.857 149.245L597.392 134.321L648.172 134.186L648.051 111.716L627.44 107.399L586.045 104.684L554.95 103.831L525.452 114.775" fill="black"/>
<path id="Vector_43" opacity="0.8" d="M685.334 193.039C685.694 213.385 679.679 232.035 662.039 230.361C639.827 230.301 637.799 214.349 637.438 194.003C637.078 173.656 647.531 158.298 660.757 158.032C673.983 157.766 684.973 172.692 685.334 193.039Z" fill="#636780"/>
<path id="Vector_44" opacity="0.1" d="M685.473 193.07C685.194 177.318 678.542 164.817 669.416 160.097C657.849 162.683 649.176 177.091 649.505 195.654C649.801 212.328 651.219 226.048 663.945 230.492C680.22 230.788 685.821 212.722 685.473 193.07Z" fill="black"/>
<path id="Vector_45" opacity="0.8" d="M707.389 160.65L700.765 169.05L712.912 166.575L721.863 157.472L729.68 139.994L740.996 132.287L769.134 135.788L795.127 136.315L804.554 127.047L793.83 125.712L782.993 125.669L755.777 125.56L723.386 125.293L717.073 144.316L712.256 157.402L707.389 160.65Z" fill="#536DFE"/>
<path id="Vector_46" opacity="0.8" d="M801.134 192.465C800.596 193.362 782.478 196.685 782.478 196.685L732.444 207.45L646.194 210.517L635.908 201.556L630.608 202.669L630.392 202.714L559.602 217.582L558.443 217.428L539.029 214.878L437.637 201.554L438.492 185.889L438.998 176.644L440.044 157.449L440.928 152.401L449.917 151.342L454.117 150.845L519.634 143.108L528.199 142.098L533.001 141.531L579.762 133.79L648.171 134.188L648.052 111.716L673.526 22.4945C679.507 23.4075 679.446 27.6978 679.446 27.6978L657.903 111.664L658.533 162.956C706.509 167.144 707.856 155.997 715.5 159.592L724.101 128.224L804.553 127.049C807.818 131.121 801.134 192.465 801.134 192.465Z" fill="#65617D"/>
<path id="Vector_47" opacity="0.8" d="M600.722 149.926L627.278 207.792L635.931 210.572L637.841 201.073L627.697 168.898L617.518 150.327L600.722 149.926Z" fill="#65617D"/>
<path id="Vector_48" opacity="0.15" d="M600.722 149.926L627.278 207.792L635.931 210.572L637.841 201.073L627.697 168.898L617.518 150.327L600.722 149.926Z" fill="black"/>
<path id="Vector_49" opacity="0.8" d="M539.032 215.48C538.486 184.626 558.736 159.198 584.262 158.684C609.789 158.17 630.926 182.766 631.472 213.62C632.019 244.475 611.769 269.903 586.242 270.417C560.716 270.93 539.579 246.335 539.032 215.48Z" fill="#636780"/>
<path id="Vector_50" opacity="0.1" d="M600.809 161.838C576.653 164.118 557.925 188.779 558.451 218.466C558.875 242.395 571.685 262.557 589.322 270.163C613.478 267.882 632.206 243.222 631.68 213.535C631.256 189.605 618.445 169.444 600.809 161.838Z" fill="black"/>
<path id="Vector_51" opacity="0.8" d="M459.627 119.353L457.542 130.892L451.164 166.242L421.008 163.744C421.008 163.744 419.102 157.87 423.777 155.558C423.777 155.558 424.97 135.517 430.421 129.105C431.005 128.374 431.744 127.803 432.577 127.438L459.627 119.353Z" fill="#65617D"/>
<path id="Vector_52" opacity="0.1" d="M457.542 130.892L451.164 166.242L421.008 163.744C421.008 163.744 419.102 157.87 423.777 155.558C423.777 155.558 424.97 135.517 430.421 129.105L457.542 130.892Z" fill="white"/>
<path id="Vector_53" opacity="0.8" d="M527.506 121.092C531.511 127.957 523.217 192.145 523.217 192.145L449.058 180.624L450.699 124.558C452.048 114.476 457.574 113.185 457.574 113.185C483.402 98.6182 543.268 94.455 543.268 94.455C597.953 95.5721 648.052 111.716 648.052 111.716C585.735 102.768 527.506 121.092 527.506 121.092Z" fill="#65617D"/>
<path id="Vector_54" opacity="0.1" d="M523.217 192.145L449.058 180.624L450.7 124.558C452.048 114.476 457.574 113.185 457.574 113.185C457.574 113.185 511.433 106.628 527.506 121.092C531.512 127.957 523.217 192.145 523.217 192.145Z" fill="black"/>
<path id="Vector_55" opacity="0.8" d="M515.336 188.606L453.326 178.751L454.682 130.917C455.806 122.315 460.426 121.216 460.426 121.216C460.426 121.216 505.457 115.64 518.901 127.986C522.252 133.845 515.336 188.606 515.336 188.606Z" fill="#65617D"/>
<path id="Vector_56" opacity="0.1" d="M501.094 149.565C500.933 140.505 504.591 133.084 509.264 132.99C513.936 132.896 517.854 140.164 518.015 149.225C518.176 158.285 514.518 165.706 509.845 165.8C505.172 165.894 501.254 158.626 501.094 149.565Z" fill="black"/>
<path id="Vector_57" opacity="0.8" d="M501.086 149.122C500.925 140.062 504.583 132.64 509.256 132.546C513.928 132.452 517.847 139.721 518.007 148.781C518.168 157.842 514.51 165.263 509.837 165.357C505.165 165.451 501.246 158.182 501.086 149.122Z" fill="#DCE0ED"/>
<path id="Vector_58" opacity="0.8" d="M510.441 136.81C510.441 136.81 506.984 137.471 508.874 142.312C509.873 144.663 510.615 147.128 511.085 149.66C511.085 149.66 514.587 151.511 514.335 145.159C514.084 138.807 510.441 136.81 510.441 136.81Z" fill="#F0F0F4"/>
<path id="Vector_59" opacity="0.1" d="M456.179 143.964C456.028 135.498 459.446 128.563 463.813 128.475C468.179 128.387 471.84 135.179 471.99 143.646C472.14 152.112 468.722 159.046 464.356 159.134C459.99 159.222 456.329 152.43 456.179 143.964Z" fill="black"/>
<path id="Vector_60" opacity="0.8" d="M456.171 143.521C456.021 135.054 459.439 128.12 463.805 128.032C468.171 127.944 471.832 134.736 471.982 143.202C472.133 151.669 468.715 158.603 464.348 158.691C459.982 158.779 456.321 151.987 456.171 143.521Z" fill="#DCE0ED"/>
<path id="Vector_61" opacity="0.8" d="M464.971 131.22C464.971 131.22 461.514 131.881 463.404 136.722C464.403 139.073 465.145 141.538 465.615 144.07C465.615 144.07 469.117 145.921 468.866 139.569C468.614 133.216 464.971 131.22 464.971 131.22Z" fill="#F0F0F4"/>
<path id="Vector_62" opacity="0.1" d="M499.598 135.696C499.152 141.768 497.173 186.752 497.173 186.752L492.452 186.009L489.826 185.601L486.328 185.05L485.907 184.983L472.128 182.821L473.996 135.107C474.057 133.574 474.669 132.125 475.704 131.06C476.74 129.995 478.121 129.395 479.56 129.384C479.698 129.386 479.839 129.387 479.981 129.398C480.931 129.468 481.957 129.553 483.024 129.656C483.474 129.7 483.929 129.744 484.392 129.797C485.714 129.939 487.078 130.116 488.418 130.324C489.102 130.434 489.775 130.549 490.439 130.673C491.562 130.89 492.649 131.13 493.653 131.407C494.334 131.593 494.983 131.797 495.578 132.02C498.075 132.928 499.716 134.128 499.598 135.696Z" fill="black"/>
<path id="Vector_63" opacity="0.8" d="M479.56 129.384L477.822 183.004L476.292 182.888L478.012 129.628C478.515 129.471 479.036 129.388 479.56 129.384Z" fill="#65617D"/>
<path id="Vector_64" opacity="0.8" d="M484.392 129.797L482.833 183.936L480.474 183.984L483.024 129.656C483.474 129.7 483.929 129.744 484.392 129.797Z" fill="#65617D"/>
<path id="Vector_65" opacity="0.8" d="M490.439 130.673L487.431 185.028L485.904 185.059L485.907 184.983L488.418 130.324C489.102 130.434 489.775 130.549 490.439 130.673Z" fill="#65617D"/>
<path id="Vector_66" opacity="0.8" d="M495.578 132.02L492.452 186.009L492.445 186.111L489.806 185.867L489.826 185.601L493.653 131.407C494.335 131.593 494.983 131.797 495.578 132.02Z" fill="#65617D"/>
<path id="Vector_67" opacity="0.1" d="M439.904 174.896C439.904 174.896 434.309 146.954 445.935 145.279C457.56 143.603 495.894 145.826 494.954 157.377C494.014 168.928 493.076 186.467 493.076 186.467L485.137 184.741C485.137 184.741 490.599 158.241 481.323 157.429C472.047 156.618 449.32 154.303 449.32 154.303C449.32 154.303 443.163 153.318 447.111 176.414L439.904 174.896Z" fill="black"/>
<path id="Vector_68" opacity="0.8" d="M439.951 177.556C439.951 177.556 434.325 147.841 445.95 146.166C457.575 144.49 495.909 146.713 494.969 158.264C494.03 169.815 493.092 187.354 493.092 187.354L485.152 185.628C485.152 185.628 490.614 159.128 481.338 158.316C472.063 157.505 449.336 155.19 449.336 155.19C449.336 155.19 443.21 155.979 447.158 179.074L439.951 177.556Z" fill="#DCE0ED"/>
<path id="Vector_69" opacity="0.8" d="M646.194 210.517L635.93 210.573C627.817 175.55 615.084 153.926 615.084 153.926C610.881 151.642 565.394 152.854 565.394 152.854C560.691 153.836 559.726 169.823 559.726 169.823C559.726 169.823 563.815 173.436 559.975 175.881C558.258 176.972 552.553 177.286 545.968 177.059C537.792 176.771 528.257 175.641 523.314 174.104C514.382 171.326 521.358 165.716 521.358 165.716C521.358 165.716 522.575 163.918 523.235 154.146C523.704 148.44 525.335 142.912 528.013 137.945C528.384 137.259 528.619 136.886 528.619 136.886C529.078 136.404 529.623 136.025 530.222 135.772C541.889 130.303 599.611 134.127 599.611 134.127L621.097 140.942C621.693 141.183 622.632 142.77 623.801 145.31C630.824 160.599 646.194 210.517 646.194 210.517Z" fill="#65617D"/>
<path id="Vector_70" opacity="0.1" d="M646.194 210.517L635.93 210.573C627.817 175.55 615.084 153.926 615.084 153.926C610.881 151.642 565.394 152.854 565.394 152.854C560.691 153.836 559.726 169.823 559.726 169.823C559.726 169.823 563.815 173.436 559.975 175.881C558.258 176.972 552.553 177.286 545.968 177.059C537.792 176.771 528.257 175.641 523.314 174.104C514.382 171.326 521.358 165.716 521.358 165.716C521.358 165.716 522.575 163.918 523.235 154.146C523.704 148.44 525.335 142.912 528.013 137.945C528.384 137.259 528.619 136.886 528.619 136.886C529.078 136.404 529.623 136.025 530.222 135.772C541.889 130.303 599.611 134.127 599.611 134.127L621.097 140.942C621.693 141.183 622.632 142.77 623.801 145.31C630.824 160.599 646.194 210.517 646.194 210.517Z" fill="black"/>
<path id="Vector_71" opacity="0.8" d="M623.801 145.31C603.938 137.544 549.676 142.969 549.676 142.969C543.812 137.827 532.95 137.7 528.013 137.945C528.384 137.259 528.619 136.886 528.619 136.886C529.078 136.404 529.623 136.025 530.222 135.772C541.889 130.303 599.611 134.127 599.611 134.127L621.097 140.942C621.693 141.183 622.632 142.77 623.801 145.31Z" fill="#65617D"/>
<path id="Vector_72" opacity="0.8" d="M552.907 145.122C551.74 149.727 546.934 168.16 546.934 168.16C546.452 171.104 546.13 174.076 545.968 177.059C537.792 176.771 528.257 175.642 523.314 174.104C514.382 171.326 521.358 165.716 521.358 165.716C521.358 165.716 522.575 163.918 523.235 154.146C523.737 148.023 525.581 142.111 528.619 136.886C529.078 136.404 529.623 136.025 530.222 135.772C537.967 137.554 553.79 141.636 552.907 145.122Z" fill="#65617D"/>
<path id="Vector_73" opacity="0.1" d="M552.907 145.122C551.74 149.727 546.934 168.16 546.934 168.16C546.452 171.104 546.13 174.076 545.968 177.059C537.792 176.771 528.257 175.642 523.314 174.104C514.382 171.326 521.358 165.716 521.358 165.716C521.358 165.716 522.575 163.918 523.235 154.146C523.737 148.023 525.581 142.111 528.619 136.886C529.078 136.404 529.623 136.025 530.222 135.772C537.967 137.554 553.79 141.636 552.907 145.122Z" fill="white"/>
<path id="Vector_74" opacity="0.8" d="M673.526 22.4944L648.051 111.716L541.826 95.3355L555.861 41.7171C555.861 41.7171 558.037 29.4759 563.535 28.4781C563.535 28.4781 648.452 11.0234 673.526 22.4944ZM661.703 36.4822C665.132 24.4376 614.664 30.4431 614.664 30.4431C607.869 29.8834 599.68 30.4918 592.068 31.4744C589.281 31.8365 586.575 32.2503 584.039 32.6739C578.382 33.6216 573.58 34.6319 570.707 35.2708C568.878 35.6757 567.83 35.9319 567.83 35.9319C557.798 39.4604 552.863 83.914 552.863 83.914C552.113 88.5863 557.297 87.484 557.297 87.484L557.634 87.4905L562.36 87.5906L576.451 87.8969L645.158 89.375C649.207 88.85 649.741 83.7385 649.741 83.7385C651.861 80.0366 661.703 36.4822 661.703 36.4822H661.703Z" fill="#65617D"/>
<path id="Vector_75" opacity="0.8" d="M557.634 87.4905L557.297 87.484C557.297 87.484 552.113 88.5863 552.863 83.914C552.863 83.914 557.798 39.4604 567.83 35.9319C567.83 35.9319 568.878 35.6757 570.707 35.2708C567.176 42.962 555.883 69.2828 557.634 87.4905Z" fill="#65617D"/>
<path id="Vector_76" opacity="0.1" d="M557.634 87.4905L557.297 87.484C557.297 87.484 552.113 88.5863 552.863 83.914C552.863 83.914 557.798 39.4604 567.83 35.9319C567.83 35.9319 568.878 35.6757 570.707 35.2708C567.176 42.962 555.883 69.2828 557.634 87.4905Z" fill="black"/>
<path id="Vector_77" opacity="0.1" d="M568.893 196.659C568.311 197.867 567.419 198.872 566.32 199.558C565.221 200.244 563.961 200.582 562.689 200.532L560.569 200.477L540.555 199.962L533.342 199.774L526.674 199.319L438.492 185.889L438.998 176.644L449.136 177.983L453.33 178.538L515.567 186.75L523.757 187.832L527.729 188.355L544.512 187.889L562.68 187.381C563.599 187.353 564.513 187.522 565.37 187.877C566.941 188.507 568.225 189.759 568.953 191.371C569.334 192.195 569.527 193.104 569.517 194.023C569.506 194.942 569.292 195.845 568.893 196.659V196.659Z" fill="black"/>
<path id="Vector_78" opacity="0.8" d="M568.908 197.546C568.327 198.753 567.434 199.759 566.336 200.445C565.237 201.131 563.977 201.469 562.704 201.419L533.358 200.661L526.69 200.205L432.652 185.882L425.26 184.758L421.232 184.143C413.295 182.528 415.505 174.056 415.505 174.056C415.99 170.201 429.521 166.38 433.96 166.442C436.945 166.479 437.448 171.37 437.455 174.577C437.457 176.147 437.345 177.311 437.345 177.311L441.742 177.893L527.744 189.242L562.696 188.268C563.991 188.217 565.273 188.567 566.386 189.275C567.499 189.983 568.396 191.019 568.969 192.258C569.35 193.082 569.543 193.991 569.532 194.91C569.522 195.829 569.308 196.732 568.908 197.546V197.546Z" fill="#DCE0ED"/>
<path id="Vector_79" opacity="0.1" d="M427.675 171.889C427.675 171.889 431.506 176.691 437.345 177.313C437.345 177.313 434.89 171.892 427.675 171.889Z" fill="black"/>
<path id="Vector_80" opacity="0.1" d="M426.948 185.654C426.948 185.654 414.598 185.607 414.724 192.701C414.85 199.795 422.638 200.821 422.638 200.821L533.305 221.215L564.661 221.175C564.661 221.175 575.453 211.643 564.007 207.734L532.399 209.257L426.901 190.829C426.901 190.829 429.604 186.783 426.948 185.654Z" fill="black"/>
<path id="Vector_81" opacity="0.8" d="M564.677 222.062L533.322 222.103L434.92 203.968L427.721 202.641L422.655 201.709C422.655 201.709 414.866 200.682 414.74 193.588C414.65 188.497 420.989 187.084 424.574 186.692C425.983 186.54 426.965 186.542 426.965 186.542C429.62 187.668 426.915 191.715 426.915 191.715L430.757 192.387L532.415 210.145L564.022 208.622C575.468 212.53 564.677 222.062 564.677 222.062Z" fill="#DCE0ED"/>
<path id="Vector_82" opacity="0.8" d="M436.138 179.703L442.602 176.468L445.928 176.253L446.18 206.113L435.877 204.103L431.525 201.234L429.225 188.861C429.225 188.861 429.965 183.671 430.373 183.219C430.781 182.768 436.138 179.703 436.138 179.703Z" fill="#DCE0ED"/>
<path id="Vector_83" opacity="0.1" d="M436.138 179.703L442.602 176.468L445.928 176.253L446.18 206.113L435.877 204.103L431.525 201.234L429.225 188.861C429.225 188.861 429.965 183.671 430.373 183.219C430.781 182.768 436.138 179.703 436.138 179.703Z" fill="black"/>
<path id="Vector_84" opacity="0.1" d="M434.92 203.968C435.001 204.069 435.044 204.121 435.044 204.121L427.806 202.785C427.776 202.737 427.746 202.689 427.721 202.641C423.802 196.186 423.383 190.89 424.574 186.692C425.982 186.54 426.965 186.542 426.965 186.542C429.62 187.668 426.915 191.715 426.915 191.715L430.756 192.387C430.602 198.236 434.201 203.06 434.92 203.968Z" fill="black"/>
<path id="Vector_85" opacity="0.1" d="M445.098 176.268C443.887 176.794 442.769 177.335 441.742 177.893C437.12 180.381 434.284 183.126 432.652 185.882L425.26 184.758C428.33 177.617 435.904 174.236 435.904 174.236L437.455 174.577L445.098 176.268Z" fill="black"/>
<path id="Vector_86" opacity="0.8" d="M436.735 174.22C436.735 174.22 416.637 183.2 428.639 202.77L435.877 204.103C435.877 204.103 421.282 186.951 445.928 176.253L436.735 174.22Z" fill="#DCE0ED"/>
<path id="Vector_87" opacity="0.8" d="M485.173 182.856L492.657 182.409L491.978 214.506L479.868 212.384L474.69 209.827L472.219 203.52L470.442 197.198L474.362 191.353L478.882 188.009L485.173 182.856Z" fill="#DCE0ED"/>
<path id="Vector_88" opacity="0.1" d="M485.173 182.856L492.657 182.409L491.978 214.506L479.868 212.384L474.69 209.827L472.219 203.52L470.442 197.198L474.362 191.353L478.882 188.009L485.173 182.856Z" fill="black"/>
<path id="Vector_89" opacity="0.8" d="M481.028 199.498C480.964 195.907 482.527 192.963 484.519 192.923C486.51 192.882 488.176 195.761 488.24 199.353C488.304 202.944 486.741 205.888 484.749 205.928C482.758 205.969 481.091 203.09 481.028 199.498Z" fill="#DCE0ED"/>
<path id="Vector_90" opacity="0.8" d="M450.397 208.946C450.146 209.062 449.92 209.232 449.735 209.447C449.549 209.662 449.408 209.916 449.32 210.192C449.233 210.468 449.201 210.761 449.226 211.052C449.251 211.342 449.333 211.624 449.467 211.879C450.313 213.492 451.331 215.58 451.249 216.139C451.11 217.084 453.072 216.268 453.328 216.042C453.584 215.815 457.177 215.964 457.339 213.355C457.359 212.568 457.186 211.789 456.836 211.096C456.486 210.403 455.971 209.819 455.344 209.403L456.075 203.678L451.126 203.334L451.27 208.543L450.397 208.946Z" fill="#636780"/>
<path id="Vector_91" opacity="0.1" d="M450.397 208.946C450.146 209.062 449.92 209.232 449.735 209.447C449.549 209.662 449.408 209.916 449.32 210.192C449.233 210.468 449.201 210.761 449.226 211.052C449.251 211.342 449.333 211.624 449.467 211.879C450.313 213.492 451.331 215.58 451.249 216.139C451.11 217.084 453.072 216.268 453.328 216.042C453.584 215.815 457.177 215.964 457.339 213.355C457.359 212.568 457.186 211.789 456.836 211.096C456.486 210.403 455.971 209.819 455.344 209.403L456.075 203.678L451.126 203.334L451.27 208.543L450.397 208.946Z" fill="black"/>
<path id="Vector_92" opacity="0.1" d="M451.743 208.81C451.743 208.81 453.516 214.873 452.791 215.11C452.067 215.346 451.743 208.81 451.743 208.81Z" fill="black"/>
<path id="Vector_93" opacity="0.1" d="M453.59 207.332C453.59 207.332 455.363 213.395 454.638 213.631C453.914 213.867 453.59 207.332 453.59 207.332Z" fill="black"/>
<path id="Vector_94" opacity="0.8" d="M473.204 188.565L470.754 206.951C470.754 206.951 467.312 206.519 465.411 206.122C464.994 206.07 464.588 205.945 464.21 205.752C464.112 205.652 463.909 205.665 463.639 205.728L463.635 205.728C462.715 205.946 461.081 206.795 460.749 206.114C460.724 206.061 460.693 206.013 460.655 205.97L460.65 205.965C460.319 205.595 459.692 205.883 459.082 205.993C458.755 206.086 458.408 206.044 458.11 205.875C457.592 205.521 456.566 206.127 455.72 206.34C455.186 206.475 454.724 206.457 454.502 205.947C454.417 205.782 454.297 205.641 454.151 205.534C454.005 205.428 453.838 205.359 453.663 205.334L453.659 205.334C452.856 205.138 451.739 205.307 451.092 205.173C450.837 205.125 450.661 205.027 450.599 204.842C450.467 204.445 449.748 204.269 448.98 204.129C448.048 203.957 447.047 203.84 446.965 203.438C446.942 203.305 446.85 203.249 446.712 203.248C446.197 203.34 445.691 203.484 445.2 203.677L445.196 203.677C444.782 203.797 444.437 203.808 444.331 203.491C444.217 203.143 443.739 203.192 443.197 203.345C442.758 203.469 442.274 203.661 441.901 203.761C441.566 203.848 441.324 203.866 441.28 203.699C441.132 203.112 439.354 204.478 438.917 203.303C438.48 202.127 432.653 194.411 439.825 184.066C439.825 184.066 441.816 184.172 443.34 184.434C443.846 184.497 444.342 184.635 444.813 184.843C444.821 184.843 444.825 184.848 444.833 184.852C445.707 185.093 446.61 185.186 447.511 185.126C448.027 185.122 448.538 185.241 449.007 185.473C449.191 185.576 449.34 185.74 449.431 185.939C449.674 186.498 450.209 186.602 450.791 186.555C451.577 186.49 452.445 186.154 452.768 186.316C452.778 186.321 452.787 186.325 452.797 186.328C453.385 186.583 455.556 186.282 455.934 186.66C455.945 186.67 455.955 186.682 455.963 186.695C456.126 186.94 456.974 186.661 457.842 186.519L457.846 186.519C458.134 186.429 458.437 186.404 458.735 186.448C459.033 186.492 459.319 186.602 459.574 186.773C459.961 187.088 460.449 187.231 460.933 187.171C461.521 187.113 462.114 187.127 462.699 187.211C462.836 187.248 462.959 187.327 463.053 187.439C463.415 187.898 464.258 187.819 465.012 187.843C465.399 187.818 465.784 187.914 466.12 188.118C466.241 188.206 466.378 188.263 466.523 188.287C467.642 188.374 468.767 188.292 469.865 188.043L473.204 188.565Z" fill="#636780"/>
<path id="Vector_95" opacity="0.1" d="M443.197 203.345C442.758 203.469 442.274 203.661 441.901 203.761C436.102 194.564 440.72 187.396 443.34 184.434C443.846 184.497 444.342 184.635 444.813 184.843C439.281 191.914 442.061 200.551 443.197 203.345Z" fill="black"/>
<path id="Vector_96" opacity="0.1" d="M446.712 203.248C446.197 203.34 445.691 203.484 445.201 203.677L445.196 203.677C440.213 194.689 445.052 187.797 447.511 185.126C448.027 185.122 448.539 185.241 449.007 185.473C443.722 191.869 445.462 199.658 446.712 203.248Z" fill="black"/>
<path id="Vector_97" opacity="0.1" d="M451.092 205.173C450.837 205.125 450.661 205.027 450.599 204.842C450.467 204.445 449.748 204.269 448.98 204.129C444.606 195.985 448.277 189.591 450.791 186.555C451.577 186.49 452.445 186.153 452.768 186.315C452.778 186.321 452.787 186.325 452.797 186.328C446.957 193.578 449.996 202.543 451.092 205.173Z" fill="black"/>
<path id="Vector_98" opacity="0.1" d="M455.72 206.34C455.186 206.475 454.724 206.457 454.502 205.947C454.417 205.782 454.297 205.641 454.151 205.534C454.005 205.428 453.838 205.359 453.663 205.334L453.659 205.334C448.562 196.269 453.471 189.317 455.934 186.66C455.945 186.67 455.955 186.682 455.963 186.695C456.126 186.94 456.974 186.661 457.842 186.519C450.968 194.198 454.749 204.137 455.72 206.34Z" fill="black"/>
<path id="Vector_99" opacity="0.1" d="M460.65 205.965C460.319 205.595 459.692 205.883 459.082 205.993C453.782 196.998 458.383 190.03 460.933 187.171C461.521 187.113 462.114 187.127 462.699 187.211C456.821 194.213 459.452 202.929 460.65 205.965Z" fill="black"/>
<path id="Vector_100" opacity="0.1" d="M465.411 206.122C464.994 206.07 464.588 205.945 464.21 205.752C464.112 205.652 463.909 205.665 463.639 205.728L463.635 205.728C458.931 197.511 462.454 191.017 465.012 187.843C465.399 187.818 465.784 187.914 466.12 188.118C466.241 188.206 466.378 188.263 466.523 188.287C461.663 195.238 464.314 203.434 465.411 206.122Z" fill="black"/>
<path id="Vector_101" opacity="0.8" d="M577.497 217.368C577.15 197.778 586.991 181.694 599.477 181.442C611.963 181.191 622.366 196.868 622.713 216.458C623.061 236.048 613.22 252.133 600.734 252.384C588.248 252.635 577.845 236.958 577.497 217.368Z" fill="#636780"/>
<path id="Vector_102" opacity="0.1" d="M582.916 217.777C582.634 201.901 589.765 188.882 598.842 188.7C607.919 188.517 615.506 201.239 615.787 217.115C616.069 232.991 608.938 246.009 599.861 246.192C590.784 246.375 583.197 233.653 582.916 217.777Z" fill="black"/>
<path id="Vector_103" opacity="0.8" d="M582.9 216.89C582.619 201.014 589.749 187.996 598.826 187.813C607.904 187.63 615.49 200.352 615.772 216.228C616.053 232.104 608.923 245.122 599.845 245.305C590.768 245.488 583.181 232.766 582.9 216.89Z" fill="#F0F0F4"/>
<path id="Vector_104" opacity="0.8" d="M600.034 197.251C600 195.292 600.841 193.686 601.913 193.665C602.986 193.643 603.883 195.214 603.918 197.173C603.953 199.132 603.111 200.737 602.039 200.759C600.967 200.78 600.069 199.21 600.034 197.251Z" fill="#636780"/>
<path id="Vector_105" opacity="0.8" d="M608.352 228.131C608.317 226.172 609.158 224.567 610.231 224.545C611.303 224.524 612.201 226.094 612.235 228.053C612.27 230.012 611.429 231.618 610.356 231.639C609.284 231.661 608.386 230.09 608.352 228.131Z" fill="#636780"/>
<path id="Vector_106" opacity="0.8" d="M587.146 213.773C587.111 211.814 587.953 210.209 589.025 210.187C590.097 210.166 590.995 211.736 591.03 213.695C591.064 215.654 590.223 217.26 589.151 217.281C588.078 217.303 587.181 215.732 587.146 213.773Z" fill="#636780"/>
<path id="Vector_107" opacity="0.8" d="M593.199 234.35C593.165 232.391 594.006 230.786 595.078 230.764C596.151 230.743 597.048 232.313 597.083 234.272C597.118 236.231 596.277 237.837 595.204 237.858C594.132 237.88 593.234 236.309 593.199 234.35Z" fill="#636780"/>
<path id="Vector_108" opacity="0.8" d="M764.411 147.962C764.411 147.962 781.456 193.748 780.675 196.646C780.675 196.646 787.619 200.942 789.263 199.8C790.908 198.658 789.09 178.292 789.09 178.292L785.651 160.397L781.926 149.827L764.411 147.962Z" fill="#65617D"/>
<path id="Vector_109" opacity="0.15" d="M764.411 147.962C764.411 147.962 781.456 193.748 780.675 196.646C780.675 196.646 787.619 200.942 789.263 199.8C790.908 198.658 789.09 178.292 789.09 178.292L785.651 160.397L781.926 149.827L764.411 147.962Z" fill="black"/>
<path id="Vector_110" opacity="0.8" d="M610.785 208.862C610.75 206.903 611.591 205.298 612.664 205.276C613.736 205.255 614.634 206.825 614.669 208.784C614.703 210.743 613.862 212.349 612.79 212.37C611.717 212.392 610.82 210.821 610.785 208.862Z" fill="#636780"/>
<path id="Vector_111" opacity="0.8" d="M596.651 217.722C596.568 213.069 599.048 209.246 602.188 209.183C605.329 209.12 607.942 212.84 608.024 217.493C608.107 222.146 605.628 225.969 602.487 226.032C599.346 226.095 596.733 222.375 596.651 217.722Z" fill="#636780"/>
<path id="Vector_112" opacity="0.8" d="M783.603 209.228C784.076 235.92 776.185 260.385 753.044 258.19C723.906 258.111 721.245 237.184 720.772 210.493C720.299 183.802 734.012 163.654 751.363 163.305C768.713 162.956 783.13 182.537 783.603 209.228Z" fill="#636780"/>
<path id="Vector_113" opacity="0.1" d="M783.786 209.27C783.419 188.605 774.694 172.206 762.721 166.014C747.547 169.406 736.17 188.307 736.602 212.659C736.989 234.533 738.85 252.532 755.545 258.361C776.895 258.749 784.243 235.049 783.786 209.27Z" fill="black"/>
<path id="Vector_114" opacity="0.1" d="M795.678 197.675C795.678 197.675 791.583 201.528 789.248 198.913C789.248 198.913 782.782 151.141 775.704 151.061L751.358 151.33C751.358 151.33 748.469 152.718 747.323 158.508L732.428 206.564L646.178 209.63L639.331 195.055L710.695 193.841L710.703 193.805C711.064 192.326 722.181 146.719 730.095 140.913C730.099 140.908 730.103 140.908 730.107 140.904C730.375 140.703 730.668 140.543 730.977 140.43C730.977 140.43 760.654 135.619 770.483 138.304C770.483 138.304 780.721 140.537 783.276 143.812C783.284 143.821 783.291 143.829 783.297 143.839C783.637 144.204 787.58 148.76 789.012 162.104L795.678 197.675Z" fill="black"/>
<path id="Vector_115" opacity="0.8" d="M795.693 198.562C795.693 198.562 791.599 202.414 789.264 199.8C789.264 199.8 782.797 152.028 775.72 151.948L751.374 152.216C751.374 152.216 748.485 153.605 747.339 159.394L732.444 207.45L646.194 210.517L639.346 195.942L710.711 194.728L710.719 194.692C711.08 193.212 722.197 147.605 730.111 141.8C730.115 141.795 730.119 141.795 730.123 141.791C730.391 141.59 730.684 141.43 730.993 141.316C730.993 141.316 760.669 136.505 770.499 139.191C770.499 139.191 780.736 141.424 783.292 144.699C783.3 144.707 783.307 144.716 783.313 144.725C783.653 145.091 787.596 149.647 789.027 162.991L795.693 198.562Z" fill="#65617D"/>
<path id="Vector_116" opacity="0.1" d="M795.693 198.562C795.693 198.562 791.599 202.414 789.264 199.8C789.264 199.8 782.797 152.028 775.72 151.948L751.374 152.216C751.374 152.216 748.485 153.605 747.339 159.394L732.444 207.45L646.194 210.517L639.346 195.942L710.711 194.728L710.719 194.692C711.08 193.212 722.197 147.605 730.111 141.8C730.115 141.795 730.119 141.795 730.123 141.791C730.391 141.59 730.684 141.43 730.993 141.316C730.993 141.316 760.669 136.505 770.499 139.191C770.499 139.191 780.736 141.424 783.292 144.699C783.3 144.707 783.307 144.716 783.313 144.725C783.653 145.091 787.596 149.647 789.027 162.991L795.693 198.562Z" fill="black"/>
<path id="Vector_117" opacity="0.8" d="M741.922 147.306C739.916 151.56 722.943 203.796 722.943 203.796L710.711 194.728L710.719 194.692C711.08 193.212 722.208 147.556 730.123 141.791C735.349 142.635 743.286 144.418 741.922 147.306Z" fill="#65617D"/>
<path id="Vector_118" opacity="0.8" d="M718.2 124.054L709.026 158.391L658.027 157.865L658.533 162.956C658.533 162.956 698.589 168.359 715.5 159.592L724.101 128.223L804.554 127.047L789.16 123.513L718.2 124.054Z" fill="#65617D"/>
<path id="Vector_119" opacity="0.1" d="M718.2 124.054L709.026 158.391L658.027 157.865L658.533 162.956C658.533 162.956 698.589 168.359 715.5 159.592L724.101 128.223L804.554 127.047L789.16 123.513L718.2 124.054Z" fill="white"/>
<path id="Vector_120" opacity="0.1" d="M480.174 182.661C480.174 182.661 453.11 197.842 473.604 211.18L479.036 212.401C479.036 212.401 458.933 197.577 491.825 182.426L480.174 182.661Z" fill="black"/>
<path id="Vector_121" opacity="0.8" d="M481.006 182.644C481.006 182.644 453.942 197.825 474.436 211.163L479.869 212.384C479.869 212.384 459.765 197.56 492.657 182.409L481.006 182.644Z" fill="#DCE0ED"/>
<path id="Vector_122" opacity="0.8" d="M749.134 213.692C748.863 198.387 755.442 185.844 763.83 185.675C772.218 185.506 779.238 197.776 779.509 213.081C779.78 228.386 773.2 240.929 764.813 241.098C756.425 241.267 749.405 228.997 749.134 213.692Z" fill="#636780"/>
<path id="Vector_123" opacity="0.1" d="M752.778 214.217C752.558 201.814 757.323 191.66 763.421 191.537C769.519 191.414 774.641 201.37 774.861 213.773C775.081 226.176 770.315 236.33 764.218 236.453C758.12 236.576 752.998 226.62 752.778 214.217Z" fill="black"/>
<path id="Vector_124" opacity="0.8" d="M752.763 213.33C752.543 200.927 757.308 190.773 763.406 190.65C769.504 190.528 774.625 200.483 774.845 212.886C775.065 225.289 770.3 235.443 764.202 235.566C758.104 235.689 752.982 225.734 752.763 213.33Z" fill="#F0F0F4"/>
<path id="Vector_125" opacity="0.8" d="M764.236 198.026C764.208 196.496 764.77 195.243 765.491 195.229C766.211 195.214 766.817 196.443 766.844 197.973C766.872 199.504 766.31 200.756 765.589 200.771C764.869 200.785 764.263 199.556 764.236 198.026Z" fill="#636780"/>
<path id="Vector_126" opacity="0.8" d="M769.883 222.169C769.856 220.638 770.418 219.386 771.138 219.371C771.859 219.357 772.465 220.586 772.492 222.116C772.519 223.647 771.957 224.899 771.237 224.913C770.516 224.928 769.91 223.699 769.883 222.169Z" fill="#636780"/>
<path id="Vector_127" opacity="0.8" d="M755.609 210.905C755.582 209.375 756.144 208.122 756.864 208.108C757.585 208.093 758.191 209.322 758.218 210.853C758.245 212.383 757.683 213.636 756.963 213.65C756.242 213.665 755.636 212.436 755.609 210.905Z" fill="#636780"/>
<path id="Vector_128" opacity="0.8" d="M759.716 226.993C759.689 225.463 760.251 224.211 760.971 224.196C761.691 224.182 762.297 225.41 762.325 226.941C762.352 228.471 761.79 229.724 761.069 229.738C760.349 229.753 759.743 228.524 759.716 226.993Z" fill="#636780"/>
<path id="Vector_129" opacity="0.8" d="M771.481 207.121C771.453 205.59 772.015 204.338 772.736 204.323C773.456 204.309 774.062 205.538 774.089 207.068C774.117 208.599 773.555 209.851 772.834 209.866C772.114 209.88 771.508 208.651 771.481 207.121Z" fill="#636780"/>
<path id="Vector_130" opacity="0.8" d="M762.002 214.011C761.938 210.376 763.596 207.395 765.706 207.352C767.816 207.31 769.578 210.222 769.643 213.857C769.707 217.492 768.049 220.473 765.939 220.515C763.829 220.558 762.067 217.646 762.002 214.011Z" fill="#636780"/>
<path id="Vector_131" opacity="0.1" d="M541.605 94.5638C541.605 94.5638 587.823 95.4079 648.052 111.716L541.605 94.5638Z" fill="black"/>
<path id="Vector_132" opacity="0.8" d="M760.445 3.97077C760.445 3.97077 757.944 4.44883 759.311 7.95023C760.033 9.65067 760.57 11.4339 760.91 13.2649C760.91 13.2649 763.443 14.6041 763.261 10.0095C763.079 5.41485 760.445 3.97077 760.445 3.97077Z" fill="#DCE0ED"/>
<path id="Vector_133" opacity="0.8" d="M663.244 88.2281L659.563 103.843L646.879 91.9999" stroke="black" stroke-miterlimit="10"/>
<path id="Vector_134" opacity="0.8" d="M641.333 106.623L678.832 99.765L685.157 139.034L647.658 145.892L641.333 106.623Z" fill="white"/>
<path id="Vector_135" opacity="0.8" d="M667.959 140.289L667.254 135.91C669.454 135.5 671.503 134.445 673.172 132.863L671.727 130.137C670.006 131.695 667.928 132.737 665.704 133.158C662.815 133.686 660.576 132.266 660.178 129.794C659.794 127.41 661.143 125.645 663.945 123.794C667.816 121.301 669.594 118.922 668.986 115.15C668.406 111.552 665.798 109.217 661.95 109.251L661.244 104.872L659.186 105.249L659.863 109.454C658.01 109.809 656.273 110.665 654.818 111.939L656.296 114.614C657.597 113.356 659.217 112.532 660.954 112.245C664.087 111.672 665.124 113.536 665.403 115.27C665.766 117.524 664.906 118.842 661.618 121.051C657.72 123.638 655.503 126.364 656.125 130.223C656.677 133.648 659.431 136.448 663.741 136.418L664.467 140.927L667.959 140.289Z" fill="#636780"/>
<path id="Vector_136" opacity="0.8" d="M668.597 282.589C668.272 282.577 667.965 282.431 667.739 282.182C667.513 281.933 667.387 281.6 667.387 281.254C667.387 280.908 667.513 280.576 667.739 280.327C667.965 280.078 668.272 279.932 668.597 279.92C668.921 279.932 669.229 280.078 669.455 280.327C669.68 280.576 669.806 280.908 669.806 281.254C669.806 281.6 669.68 281.933 669.455 282.182C669.229 282.431 668.921 282.577 668.597 282.589V282.589Z" fill="#65617D"/>
</g>
<path id="Vector_137" opacity="0.1" d="M375.751 404.57C367.14 404.57 360.159 403.312 360.159 401.761C360.159 400.21 367.14 398.953 375.751 398.953C384.362 398.953 391.342 400.21 391.342 401.761C391.342 403.312 384.362 404.57 375.751 404.57Z" fill="#536DFE"/>
<path id="Vector_138" d="M386.221 388.71C386.221 388.71 377.328 388.418 374.647 386.385C371.967 384.351 360.966 381.922 360.301 385.184C359.636 388.446 346.936 401.407 356.977 401.493C367.018 401.579 380.308 399.827 382.983 398.09C385.658 396.354 386.221 388.71 386.221 388.71Z" fill="#A8A8A8"/>
<path id="Vector_139" opacity="0.2" d="M356.798 400.358C366.839 400.444 380.128 398.691 382.804 396.955C384.841 395.632 385.653 390.887 385.925 388.698C386.113 388.707 386.221 388.71 386.221 388.71C386.221 388.71 385.658 396.354 382.983 398.09C380.308 399.827 367.018 401.579 356.977 401.493C354.078 401.468 353.077 400.369 353.132 398.742C353.535 399.725 354.64 400.339 356.798 400.358Z" fill="black"/>
<path id="Vector_140" opacity="0.1" d="M285.316 371.196C278.689 371.196 273.318 370.228 273.318 369.035C273.318 367.841 278.689 366.874 285.316 366.874C291.942 366.874 297.313 367.841 297.313 369.035C297.313 370.228 291.942 371.196 285.316 371.196Z" fill="#536DFE"/>
<path id="Vector_141" d="M293.373 358.992C293.373 358.992 286.529 358.767 284.467 357.202C282.404 355.637 273.939 353.769 273.427 356.279C272.916 358.789 263.142 368.762 270.869 368.829C278.596 368.895 288.822 367.546 290.881 366.21C292.94 364.874 293.373 358.992 293.373 358.992Z" fill="#A8A8A8"/>
<path id="Vector_142" opacity="0.2" d="M270.731 367.955C278.458 368.021 288.685 366.672 290.743 365.336C292.311 364.319 292.936 360.667 293.145 358.983C293.289 358.989 293.373 358.992 293.373 358.992C293.373 358.992 292.94 364.874 290.881 366.21C288.822 367.546 278.596 368.895 270.869 368.829C268.639 368.809 267.868 367.964 267.91 366.711C268.22 367.468 269.071 367.941 270.731 367.955Z" fill="black"/>
<path id="Vector_143" opacity="0.1" d="M339.753 510.828C323.934 510.828 311.11 508.518 311.11 505.669C311.11 502.819 323.934 500.509 339.753 500.509C355.571 500.509 368.395 502.819 368.395 505.669C368.395 508.518 355.571 510.828 339.753 510.828Z" fill="#536DFE"/>
<path id="Vector_144" d="M358.988 481.694C358.988 481.694 342.65 481.158 337.726 477.422C332.802 473.686 312.594 469.224 311.372 475.216C310.151 481.209 286.819 505.018 305.265 505.177C323.711 505.335 348.125 502.115 353.039 498.925C357.953 495.735 358.988 481.694 358.988 481.694Z" fill="#A8A8A8"/>
<path id="Vector_145" opacity="0.2" d="M304.936 503.091C323.381 503.249 347.795 500.029 352.71 496.839C356.452 494.41 357.944 485.693 358.443 481.672C358.788 481.687 358.988 481.694 358.988 481.694C358.988 481.694 357.953 495.735 353.039 498.925C348.125 502.115 323.711 505.335 305.265 505.177C299.94 505.131 298.101 503.112 298.202 500.122C298.942 501.929 300.973 503.057 304.936 503.091Z" fill="black"/>
<path id="Vector_146" d="M37.3256 324.049C37.3249 344.534 44.7485 364.229 58.0469 379.022C71.3454 393.815 89.4914 402.565 108.698 403.445C127.905 404.324 146.689 397.267 161.13 383.744C175.57 370.221 184.553 351.279 186.202 330.869C186.31 329.578 186.392 328.287 186.428 326.977V326.91C186.464 325.956 186.482 325.003 186.482 324.049C186.476 302.977 178.615 282.771 164.63 267.873C150.644 252.976 131.679 244.607 111.904 244.607C92.1289 244.607 73.1633 252.976 59.1779 267.873C45.1925 282.771 37.3322 302.977 37.3256 324.049V324.049Z" fill="#65617D"/>
<path id="jeep_tire_left" opacity="0.2" d="M37.3256 324.049C37.3249 344.534 44.7485 364.229 58.0469 379.022C71.3454 393.815 89.4914 402.565 108.698 403.445C127.905 404.324 146.689 397.267 161.13 383.744C175.57 370.221 184.553 351.279 186.202 330.869C186.31 329.578 186.392 328.287 186.428 326.977V326.91C186.464 325.956 186.482 325.003 186.482 324.049C186.476 302.977 178.615 282.771 164.63 267.873C150.644 252.976 131.679 244.607 111.904 244.607C92.1289 244.607 73.1633 252.976 59.1779 267.873C45.1925 282.771 37.3322 302.977 37.3256 324.049V324.049Z" fill="black"/>
<path id="Vector_147" d="M111.906 367.396C89.4395 367.396 71.2268 347.989 71.2268 324.049C71.2268 300.109 89.4395 280.702 111.906 280.702C134.372 280.702 152.585 300.109 152.585 324.049C152.585 347.989 134.372 367.396 111.906 367.396Z" fill="#DCE0ED"/>
<path id="Vector_148" d="M111.906 350.057C98.4262 350.057 87.4986 338.413 87.4986 324.049C87.4986 309.685 98.4262 298.041 111.906 298.041C125.386 298.041 136.313 309.685 136.313 324.049C136.313 338.413 125.386 350.057 111.906 350.057Z" fill="#65617D"/>
<path id="Vector_149" d="M435.466 324.049C435.465 344.534 442.888 364.229 456.187 379.022C469.485 393.815 487.631 402.565 506.838 403.445C526.045 404.325 544.829 397.267 559.27 383.744C573.711 370.221 582.693 351.279 584.342 330.869C584.45 329.578 584.532 328.287 584.568 326.977V326.91C584.604 325.956 584.622 325.003 584.622 324.049C584.616 302.977 576.755 282.771 562.77 267.873C548.784 252.976 529.819 244.607 510.044 244.607C490.269 244.607 471.303 252.976 457.318 267.873C443.333 282.771 435.472 302.977 435.466 324.049V324.049Z" fill="#65617D"/>
<path id="jeep_tire_right" opacity="0.2" d="M435.466 324.049C435.465 344.534 442.888 364.229 456.187 379.022C469.485 393.815 487.631 402.565 506.838 403.445C526.045 404.325 544.829 397.267 559.27 383.744C573.711 370.221 582.693 351.279 584.342 330.869C584.45 329.578 584.532 328.287 584.568 326.977V326.91C584.604 325.956 584.622 325.003 584.622 324.049C584.616 302.977 576.755 282.771 562.77 267.873C548.784 252.976 529.819 244.607 510.044 244.607C490.269 244.607 471.303 252.976 457.318 267.873C443.333 282.771 435.472 302.977 435.466 324.049V324.049Z" fill="black"/>
<path id="Vector_150" d="M510.046 367.396C487.58 367.396 469.367 347.989 469.367 324.049C469.367 300.109 487.58 280.702 510.046 280.702C532.512 280.702 550.725 300.109 550.725 324.049C550.725 347.989 532.512 367.396 510.046 367.396Z" fill="#DCE0ED"/>
<path id="Vector_151" d="M510.046 350.057C496.566 350.057 485.639 338.413 485.639 324.049C485.639 309.685 496.566 298.041 510.046 298.041C523.526 298.041 534.453 309.685 534.453 324.049C534.453 338.413 523.526 350.057 510.046 350.057Z" fill="#65617D"/>
<path id="Vector_152" d="M14.0647 309.158L38.9485 308.005L61.6684 263.044L141.729 256.127L180.678 310.311L178.514 325.298L183.923 339.132L438.17 341.438V334.521H440.334L442.498 324.145H423.024L437.088 308.005L486.856 263.044C486.856 263.044 572.326 265.35 573.408 263.044C574.49 260.738 568.54 237.105 568.54 237.105L531.755 225.576L406.254 215.201C378.666 168.51 353.782 146.606 353.782 146.606H31.3752L16.2285 229.611V229.807L14.0647 309.158Z" fill="#444053"/>
<path id="Vector_153" d="M193.66 314.922C193.66 314.922 161.203 250.363 136.32 250.363H75.7331C75.7331 250.363 60.5864 250.363 54.095 263.044L29.2114 314.922H48.6856C48.6856 314.922 64.9141 266.503 83.3064 265.35C101.699 264.197 133.074 265.35 133.074 265.35C133.074 265.35 143.893 265.35 150.384 279.184C156.876 293.018 178.824 323.153 178.824 323.153C178.824 323.153 202.316 331.062 193.66 314.922Z" fill="#33323D"/>
<path id="Vector_154" d="M7.31119e-05 304.547H40.6964L41.1121 339.132L7.31119e-05 328.757V304.547Z" fill="#33323D"/>
<path id="Vector_155" d="M588.555 283.795C588.555 283.795 586.391 266.503 571.244 259.585L471.709 253.821C471.709 253.821 455.481 254.974 446.825 276.878L418.696 321.839V328.757H450.071C450.071 328.757 465.218 267.655 508.494 269.961H560.425C560.425 269.961 572.326 269.961 576.654 290.712L588.555 283.795Z" fill="#33323D"/>
<path id="Vector_156" d="M354.864 153.523H22.7199C22.7199 150.16 23.9737 146.934 26.2056 144.556C28.4374 142.178 31.4645 140.842 34.6208 140.842H342.963C344.526 140.842 346.073 141.17 347.517 141.807C348.961 142.444 350.273 143.379 351.378 144.556C352.483 145.734 353.36 147.132 353.958 148.67C354.556 150.209 354.864 151.858 354.864 153.523Z" fill="#33323D"/>
<path id="Vector_157" opacity="0.3" d="M283.684 221.541H375.595C376.631 221.541 377.65 221.266 378.559 220.74C379.469 220.213 380.242 219.453 380.806 218.528C381.37 217.603 381.708 216.542 381.79 215.443C381.872 214.343 381.694 213.239 381.274 212.231L366.73 177.361C364.486 171.982 360.826 167.411 356.194 164.203C351.561 160.995 346.155 159.287 340.63 159.287H284.787C283.76 159.287 282.743 159.503 281.795 159.922C280.846 160.341 279.984 160.954 279.258 161.728C278.531 162.502 277.955 163.421 277.562 164.432C277.169 165.443 276.967 166.526 276.967 167.621V214.384C276.967 215.324 277.141 216.255 277.478 217.123C277.816 217.991 278.311 218.78 278.934 219.445C279.558 220.11 280.299 220.637 281.114 220.997C281.929 221.356 282.802 221.541 283.684 221.541Z" fill="#536DFE"/>
<path id="Vector_158" opacity="0.3" d="M167.992 159.287H248.541C251.095 159.287 253.165 161.494 253.165 164.215V216.614C253.165 219.335 251.095 221.541 248.541 221.541H167.992C165.438 221.541 163.367 219.335 163.367 216.614V164.215C163.367 161.494 165.438 159.287 167.992 159.287Z" fill="#536DFE"/>
<path id="Vector_159" d="M16.2281 229.611V229.808L155.794 231.917L159.429 146.607H31.3753L16.2281 229.611Z" fill="#33323D"/>
<path id="Vector_160" opacity="0.3" d="M45.7368 159.287H139.269C141.823 159.287 143.893 161.494 143.893 164.215V216.614C143.893 219.335 141.823 221.541 139.269 221.541H45.7368C43.1828 221.541 41.1124 219.335 41.1124 216.614V164.215C41.1124 161.494 43.1828 159.287 45.7368 159.287Z" fill="#536DFE"/>
<path id="Vector_161" d="M271.945 243.446H303.627C304.439 243.446 305.096 244.147 305.096 245.011V248.797C305.096 249.662 304.439 250.363 303.627 250.363H271.945C271.133 250.363 270.476 249.662 270.476 248.797V245.011C270.476 244.147 271.133 243.446 271.945 243.446Z" fill="#33323D"/>
<path id="Vector_162" d="M172.41 243.446H204.092C204.904 243.446 205.561 244.147 205.561 245.011V248.797C205.561 249.662 204.904 250.363 204.092 250.363H172.41C171.598 250.363 170.941 249.662 170.941 248.797V245.011C170.941 244.147 171.598 243.446 172.41 243.446Z" fill="#33323D"/>
<path id="Vector_163" d="M95.3899 152.403H135.454V194.358H95.3899V152.403Z" fill="white"/>
<path id="Vector_164" d="M117.395 192.396V187.717C119.747 187.709 122.05 187.003 124.047 185.679L123.003 182.575C120.957 183.865 118.625 184.553 116.247 184.567C113.161 184.567 111.074 182.668 111.074 180.027C111.074 177.48 112.77 175.905 115.987 174.515C120.421 172.662 122.663 170.531 122.663 166.501C122.663 162.657 120.347 159.738 116.347 159.043V154.365H114.148V158.858C112.165 158.875 110.219 159.433 108.497 160.48L109.584 163.537C111.144 162.477 112.963 161.93 114.813 161.962C118.16 161.962 118.925 164.092 118.925 165.945C118.925 168.354 117.812 169.559 114.03 171.226C109.553 173.172 106.796 175.58 106.796 179.703C106.796 183.363 109.187 186.791 113.665 187.578V192.396L117.395 192.396Z" fill="#636780"/>
<path id="motorcycle_tire_left" d="M576.099 413.674C576.098 426.001 580.565 437.852 588.567 446.754C596.569 455.656 607.489 460.921 619.046 461.45C630.604 461.98 641.907 457.733 650.596 449.595C659.286 441.458 664.691 430.06 665.683 417.778C665.748 417.001 665.797 416.225 665.819 415.437V415.396C665.84 414.822 665.851 414.248 665.851 413.674C665.836 401.003 661.101 388.856 652.687 379.901C644.273 370.947 632.867 365.917 620.975 365.917C609.083 365.917 597.678 370.947 589.263 379.901C580.849 388.856 576.114 401.003 576.099 413.674Z" fill="#65617D"/>
<path id="Vector_165" d="M620.976 439.758C607.457 439.758 596.498 428.08 596.498 413.674C596.498 399.269 607.457 387.591 620.976 387.591C634.495 387.591 645.454 399.269 645.454 413.674C645.454 428.08 634.495 439.758 620.976 439.758Z" fill="#DCE0ED"/>
<path id="Vector_166" d="M620.976 429.324C612.865 429.324 606.29 422.318 606.29 413.674C606.29 405.031 612.865 398.025 620.976 398.025C629.088 398.025 635.663 405.031 635.663 413.674C635.663 422.318 629.088 429.324 620.976 429.324Z" fill="#65617D"/>
<path id="Vector_167" d="M738.828 322.864L846.89 325.183V308.183C845.922 294.521 832.775 289.727 820.775 288.226C811.419 287.094 801.947 287.851 792.854 290.458C769.926 296.926 755.305 298.178 748.124 298.3C746.545 298.326 745.022 298.931 743.813 300.015C742.604 301.098 741.783 302.593 741.488 304.247C741.145 306.189 740.808 308.304 740.493 310.391C740.253 312.026 740.025 313.637 739.818 315.138C739.225 319.491 738.828 322.864 738.828 322.864Z" fill="#65617D"/>
<path id="Vector_168" d="M652.617 416.764H877.101C878.835 416.783 880.535 416.258 881.99 415.256C883.446 414.253 884.593 412.816 885.288 411.124C886.98 406.818 884.613 404.07 882.089 402.459C876.924 399.197 873.009 394.092 871.036 388.049C868.643 380.543 866.304 368.725 865.385 350.304C864.438 331.252 857.965 321.833 850.97 317.271H850.964C841.929 311.382 832.024 313.591 832.024 313.591L741.004 314.367C739.384 315.15 737.885 316.192 736.56 317.457C728.449 325.502 740.275 336.005 740.275 336.005C765.661 364.598 746.443 393.579 746.443 393.579H699.87C691.168 393.627 682.659 390.851 675.474 385.621C669.18 380.989 666.743 376.503 665.802 373.79C665.084 371.715 664.355 369.646 663.485 367.641C651.268 339.407 666.004 293.478 672.362 276.303C673.94 272.031 675.001 269.539 675.001 269.539L660.395 268.362L651.159 267.615L651.067 267.609C630.712 305.018 623.145 343.459 620.6 371.941C620.36 374.625 620.165 377.228 620.007 379.726C619.717 384.477 620.346 389.241 621.854 393.722C623.362 398.204 625.718 402.307 628.775 405.78C631.832 409.252 635.525 412.018 639.626 413.908C643.727 415.797 648.149 416.769 652.617 416.764V416.764Z" fill="#536DFE"/>
<path id="Vector_169" opacity="0.1" d="M739.818 315.138H846.89V310.391H740.493C740.253 312.026 740.025 313.637 739.818 315.138Z" fill="black"/>
<path id="Vector_170" opacity="0.1" d="M736.56 317.457H850.105C850.4 317.458 850.693 317.395 850.964 317.271C841.929 311.382 832.024 313.591 832.024 313.591L741.004 314.367C739.384 315.15 737.885 316.192 736.56 317.457Z" fill="black"/>
<path id="Vector_171" d="M735.613 311.553H889.832C891.062 311.553 892.058 312.615 892.058 313.925C892.058 315.235 891.062 316.297 889.832 316.297H735.613C734.384 316.297 733.387 315.235 733.387 313.925C733.387 312.615 734.384 311.553 735.613 311.553Z" fill="#DCE0ED"/>
<path id="Vector_172" opacity="0.1" d="M620.6 371.941C625.773 377.935 629.58 380.294 629.401 373.97C628.857 354.842 660.395 268.362 660.395 268.362L651.067 267.609C630.712 305.018 623.145 343.459 620.6 371.941Z" fill="black"/>
<path id="Vector_173" opacity="0.1" d="M576.371 408.435C581.729 409.803 588.354 411.194 596.524 412.469C599.56 412.944 602.816 413.4 606.294 413.837C614.632 414.892 624.277 415.813 635.417 416.52C638.572 416.723 641.848 416.907 645.246 417.071C651.611 417.378 658.423 417.614 665.683 417.778L665.819 415.437V415.396C655.674 411.031 639.714 399.387 637.141 369.055C630.73 366.423 623.837 365.393 616.994 366.046C610.15 366.699 603.539 369.017 597.668 372.821C591.798 376.625 586.825 381.814 583.132 387.988C579.44 394.163 577.127 401.158 576.371 408.435Z" fill="black"/>
<path id="Vector_174" d="M674.277 416.764C674.277 416.764 622.765 410.818 640.498 327.173C640.498 327.173 615.043 352.035 599.211 365.855C583.38 379.676 555.162 398.726 555.162 398.726C555.162 398.726 572.014 415.508 674.277 416.764Z" fill="#536DFE"/>
<path id="Vector_175" opacity="0.1" d="M674.277 416.764C674.277 416.764 622.765 410.818 640.498 327.173C640.498 327.173 615.043 352.035 599.211 365.855C583.38 379.676 555.162 398.726 555.162 398.726C555.162 398.726 572.014 415.508 674.277 416.764Z" fill="white"/>
<path id="motorcycle_tire_right" d="M811.897 461.494C787.113 461.494 767.021 440.084 767.021 413.674C767.021 387.265 787.113 365.855 811.897 365.855C836.682 365.855 856.774 387.265 856.774 413.674C856.774 440.084 836.682 461.494 811.897 461.494Z" fill="#65617D"/>
<path id="Vector_176" d="M811.898 439.758C798.379 439.758 787.42 428.08 787.42 413.674C787.42 399.269 798.379 387.591 811.898 387.591C825.416 387.591 836.375 399.269 836.375 413.674C836.375 428.08 825.416 439.758 811.898 439.758Z" fill="#DCE0ED"/>
<path id="Vector_177" d="M811.897 429.324C803.786 429.324 797.211 422.318 797.211 413.674C797.211 405.031 803.786 398.025 811.897 398.025C820.009 398.025 826.584 405.031 826.584 413.674C826.584 422.318 820.009 429.324 811.897 429.324Z" fill="#65617D"/>
<path id="Vector_178" opacity="0.1" d="M761.582 399.314C761.582 368.433 784.596 343.399 812.985 343.399C841.375 343.399 864.389 368.433 864.389 399.314C864.389 400.617 864.345 401.908 864.264 403.189H761.707C761.626 401.908 761.582 400.617 761.582 399.314Z" fill="black"/>
<path id="Vector_179" d="M763.486 398.35C763.486 368.613 785.647 344.506 812.985 344.506C840.323 344.506 862.485 368.613 862.485 398.35C862.485 399.605 862.442 400.849 862.365 402.082H763.606C763.528 400.849 763.486 399.605 763.486 398.35Z" fill="#536DFE"/>
<path id="Vector_180" opacity="0.1" d="M763.486 398.349C763.486 399.213 763.507 400.071 763.545 400.923C763.562 401.311 763.584 401.694 763.605 402.082H862.366C862.387 401.694 862.409 401.311 862.425 400.923C862.463 400.071 862.485 399.213 862.485 398.349C862.485 368.614 840.325 344.508 812.985 344.508C785.646 344.508 763.486 368.614 763.486 398.349Z" fill="white"/>
<path id="Vector_181" opacity="0.1" d="M763.545 400.923C763.562 401.311 763.584 401.694 763.605 402.082H862.366C862.387 401.694 862.409 401.311 862.425 400.923H763.545Z" fill="black"/>
<path id="Vector_182" opacity="0.1" d="M629.447 321.419C626.169 319.839 626.538 311.427 630.271 302.629C634.005 293.831 639.689 287.98 642.967 289.56C646.246 291.139 645.876 299.552 642.143 308.35C638.409 317.147 632.725 322.999 629.447 321.419Z" fill="black"/>
<path id="Vector_183" d="M628.903 320.839C625.625 319.26 625.994 310.847 629.727 302.05C633.461 293.252 639.145 287.4 642.423 288.98C645.701 290.56 645.332 298.972 641.599 307.77C637.865 316.568 632.181 322.419 628.903 320.839Z" fill="#DCE0ED"/>
<path id="Vector_184" opacity="0.1" d="M651.159 267.615V276.697H667.75C669.295 276.699 670.837 276.567 672.362 276.303C673.94 272.031 675 269.539 675 269.539L660.395 268.362L651.159 267.615Z" fill="black"/>
<path id="Vector_185" d="M651.159 275.537H667.75C682.32 275.537 694.131 263.921 694.131 249.592V247.184C694.131 232.855 682.32 221.239 667.75 221.239L651.159 222.844V275.537Z" fill="#536DFE"/>
<path id="Vector_186" d="M678.493 236.599C678.493 236.599 668.566 242.25 674.277 251.814C674.277 251.814 681.28 264.059 692.296 262.899L696.307 236.599C696.307 236.599 683.116 235.295 678.493 236.599Z" fill="#536DFE"/>
<path id="Vector_187" opacity="0.1" d="M682.303 236.088C680.727 236.154 679.185 236.595 677.79 237.379C676.396 238.163 675.183 239.271 674.243 240.62C672.475 243.228 671.421 247.032 674.277 251.814C674.277 251.814 681.28 264.059 692.296 262.899L696.307 236.599C691.652 236.145 686.977 235.974 682.303 236.088V236.088Z" fill="black"/>
<path id="Vector_188" opacity="0.1" d="M651.703 222.844C649.953 222.844 648.22 223.211 646.603 223.925C644.986 224.638 643.517 225.684 642.279 227.003C641.042 228.322 640.06 229.887 639.391 231.61C638.721 233.333 638.376 235.18 638.376 237.045V261.337C638.376 265.103 639.78 268.715 642.279 271.378C644.779 274.041 648.168 275.537 651.703 275.537V275.537V222.844V222.844Z" fill="black"/>
<path id="Vector_189" d="M651.159 222.844C647.625 222.844 644.235 224.34 641.736 227.003C639.236 229.666 637.832 233.278 637.832 237.045V261.337C637.832 265.103 639.236 268.715 641.736 271.378C644.235 274.041 647.625 275.537 651.159 275.537V222.844Z" fill="#DCE0ED"/>
<path id="Vector_190" d="M697.456 264.566C691.369 264.566 686.434 258.169 686.434 250.277C686.434 242.386 691.369 235.989 697.456 235.989C703.543 235.989 708.478 242.386 708.478 250.277C708.478 258.169 703.543 264.566 697.456 264.566Z" fill="#536DFE"/>
<path id="Vector_191" d="M814.833 316.33L810.017 327.758L801.968 316.33" stroke="black" stroke-miterlimit="10"/>
<path id="Vector_192" d="M790.796 328.235H830.068V369.362H790.796V328.235Z" fill="white"/>
<path id="Vector_193" d="M812.367 367.438V362.852C814.672 362.844 816.93 362.153 818.886 360.854L817.864 357.812C815.858 359.076 813.572 359.75 811.241 359.764C808.216 359.764 806.17 357.903 806.17 355.314C806.17 352.817 807.832 351.273 810.986 349.911C815.332 348.095 817.531 346.006 817.531 342.055C817.531 338.287 815.259 335.426 811.339 334.745V330.159H809.183V334.563C807.24 334.579 805.332 335.127 803.644 336.152L804.709 339.149C806.239 338.111 808.021 337.574 809.835 337.606C813.116 337.606 813.866 339.694 813.866 341.51C813.866 343.872 812.775 345.052 809.068 346.687C804.679 348.594 801.977 350.955 801.977 354.996C801.977 358.584 804.321 361.944 808.71 362.716V367.438L812.367 367.438Z" fill="#636780"/>
<path id="Vector_194" d="M881.58 219.521H887.424V315.595H881.58V219.521Z" fill="#DCE0ED"/>
<path id="Vector_195" d="M887.424 219.521C887.424 219.521 909.129 220.411 913.303 222.19C917.478 223.969 930 223.08 930 223.08V247.988C930 247.988 915.808 244.429 908.294 247.098C900.781 249.767 884.919 243.54 884.919 243.54L887.424 219.521Z" fill="#DCE0ED"/>
</g>
<defs>
<clipPath id="clip0_0_1">
<rect width="930" height="528" fill="white" transform="matrix(-1 0 0 1 930 0)"/>
</clipPath>
</defs>
</svg>
